<svg width="31" height="31" viewBox="0 0 31 31" fill="none" xmlns="http://www.w3.org/2000/svg">
<path d="M5.16699 3.91699C10.9794 3.91709 16.554 6.22606 20.6641 10.3359C24.774 14.4461 27.084 20.0215 27.084 25.834C27.0836 26.5238 26.5238 27.0836 25.834 27.084C25.1438 27.084 24.5843 26.524 24.584 25.834C24.584 20.6845 22.5376 15.7448 18.8965 12.1035C15.2553 8.46247 10.3163 6.41709 5.16699 6.41699C4.47675 6.41699 3.91717 5.8572 3.91699 5.16699C3.91699 4.47664 4.47664 3.91699 5.16699 3.91699ZM5.16699 12.958C8.58152 12.9581 11.8561 14.315 14.2705 16.7295C16.6849 19.1439 18.0419 22.4185 18.042 25.833C18.042 26.5232 17.4822 27.0828 16.792 27.083C16.1016 27.083 15.542 26.5234 15.542 25.833C15.5419 23.0815 14.4485 20.4427 12.5029 18.4971C10.5573 16.5515 7.91848 15.4581 5.16699 15.458C4.47664 15.458 3.91699 14.8984 3.91699 14.208C3.91717 13.5178 4.47675 12.958 5.16699 12.958ZM6.45898 22.25C7.72432 22.2504 8.75 23.2766 8.75 24.542C8.74982 25.8073 7.72421 26.8326 6.45898 26.833C5.19344 26.833 4.16717 25.8075 4.16699 24.542C4.16699 23.2763 5.19333 22.25 6.45898 22.25ZM6.45898 24.25C6.2979 24.25 6.16699 24.3809 6.16699 24.542C6.16717 24.7029 6.29801 24.833 6.45898 24.833C6.61964 24.8326 6.74982 24.7027 6.75 24.542C6.75 24.3811 6.61975 24.2504 6.45898 24.25Z" fill="#14171F" fill-opacity="0.78"/>
</svg>
