<svg width="720" height="684" viewBox="0 0 720 684" fill="none" xmlns="http://www.w3.org/2000/svg">
<g opacity="0.7">
<path d="M355.067 12C363.067 12 397.643 27.7747 412.643 38.2381C422.732 45.276 418.027 41.9397 426.567 48.9761C469.394 84.2645 469.653 108.801 473.498 144.12C473.877 147.601 474.067 151.082 474.067 154.563C474.067 193.418 451.073 232.273 405.085 271.128C399.517 275.832 393.612 280.536 387.371 285.24H321.187C314.945 280.536 309.04 275.832 303.473 271.128C257.485 232.273 234.491 193.418 234.491 154.563C234.491 151.082 234.68 147.601 235.06 144.12C238.904 108.801 238.74 84.2645 281.567 48.9761C290.106 41.9397 285.977 45.276 296.067 38.238C313.067 26.3796 347.067 12 355.067 12Z" fill="url(#paint0_linear_43_1213)"/>
<path d="M662.757 228.981C665.229 236.589 660.911 274.348 655.595 291.847C652.02 303.617 653.739 298.112 649.686 308.408C629.359 360.043 606.103 367.872 573.701 382.443C570.507 383.879 567.255 385.135 563.945 386.211C526.991 398.218 482.932 388.356 431.768 356.626C425.574 352.784 419.276 348.622 412.873 344.14L392.421 281.195C394.966 273.805 397.615 266.736 400.368 259.987C423.111 204.243 452.958 170.368 489.911 158.361C493.222 157.285 496.592 156.39 500.019 155.675C534.798 148.417 558.083 140.678 604.878 170.505C614.209 176.452 609.76 173.556 619.571 180.977C636.103 193.48 660.285 221.372 662.757 228.981Z" fill="url(#paint1_linear_43_1213)"/>
<path d="M551.477 588.662C545.005 593.365 507.76 600.926 489.475 601.278C477.175 601.514 482.943 601.448 471.898 600.775C416.508 597.399 401.876 577.701 378.006 551.387C375.653 548.794 373.453 546.089 371.407 543.273C348.569 511.838 344.333 466.888 358.7 408.423C360.439 401.345 362.451 394.069 364.736 386.595L418.28 347.692C426.094 347.829 433.636 348.164 440.905 348.697C500.949 353.1 542.39 371.019 565.228 402.454C567.274 405.27 569.167 408.198 570.906 411.237C588.556 442.07 603.111 461.824 589.206 515.546C586.433 526.258 587.812 521.132 583.787 532.756C577.004 552.342 557.949 583.96 551.477 588.662Z" fill="url(#paint2_linear_43_1213)"/>
<path d="M175.012 593.977C168.54 589.275 149.84 556.189 143.855 538.907C139.829 527.283 141.674 532.748 138.902 522.036C124.996 468.314 139.208 448.311 156.858 417.477C158.597 414.438 160.49 411.51 162.536 408.694C185.374 377.26 226.815 359.341 286.859 354.938C294.128 354.405 301.67 354.07 309.484 353.933L363.028 392.835C365.313 400.309 367.325 407.586 369.064 414.664C383.431 473.129 379.195 518.079 356.357 549.513C354.311 552.33 352.111 555.034 349.758 557.628C325.888 583.942 311.599 603.889 256.209 607.265C245.165 607.938 250.466 607.666 238.167 607.429C217.443 607.03 181.485 598.679 175.012 593.977Z" fill="url(#paint3_linear_43_1213)"/>
<path d="M53.6242 237.58C56.0963 229.971 81.7836 201.962 96.37 190.93C106.181 183.509 101.554 186.953 110.885 181.006C157.681 151.179 181.097 158.515 215.875 165.773C219.303 166.488 222.672 167.383 225.983 168.459C262.936 180.466 292.784 214.341 315.526 270.085C318.279 276.834 320.928 283.903 323.473 291.293L303.021 354.238C296.619 358.72 290.321 362.882 284.126 366.724C232.962 398.454 188.903 408.316 151.95 396.309C148.639 395.233 145.387 393.977 142.194 392.541C109.791 377.97 86.4048 370.544 66.0778 318.909C62.0247 308.613 63.9217 313.571 60.3461 301.8C54.3213 281.968 51.1521 245.188 53.6242 237.58Z" fill="url(#paint4_linear_43_1213)"/>
</g>
<defs>
<linearGradient id="paint0_linear_43_1213" x1="359.587" y1="-1.00866e-05" x2="359.587" y2="282.24" gradientUnits="userSpaceOnUse">
<stop offset="0.225962" stop-color="#6C9CE4"/>
<stop offset="0.572115" stop-color="#829FD6"/>
<stop offset="0.725962" stop-color="#8AA4D9" stop-opacity="0.9"/>
<stop offset="1" stop-color="#D8E1F4"/>
</linearGradient>
<linearGradient id="paint1_linear_43_1213" x1="675.567" y1="229.572" x2="407.14" y2="316.789" gradientUnits="userSpaceOnUse">
<stop offset="0.225962" stop-color="#6C9CE4"/>
<stop offset="0.572115" stop-color="#829FD6"/>
<stop offset="0.725962" stop-color="#8AA4D9" stop-opacity="0.9"/>
<stop offset="1" stop-color="#D8E1F4"/>
</linearGradient>
<linearGradient id="paint2_linear_43_1213" x1="554.873" y1="601.028" x2="388.976" y2="372.691" gradientUnits="userSpaceOnUse">
<stop offset="0.225962" stop-color="#6C9CE4"/>
<stop offset="0.572115" stop-color="#829FD6"/>
<stop offset="0.725962" stop-color="#8AA4D9" stop-opacity="0.9"/>
<stop offset="1" stop-color="#D8E1F4"/>
</linearGradient>
<linearGradient id="paint3_linear_43_1213" x1="164.302" y1="601.028" x2="330.198" y2="372.69" gradientUnits="userSpaceOnUse">
<stop offset="0.225962" stop-color="#6C9CE4"/>
<stop offset="0.572115" stop-color="#829FD6"/>
<stop offset="0.725962" stop-color="#8AA4D9" stop-opacity="0.9"/>
<stop offset="1" stop-color="#D8E1F4"/>
</linearGradient>
<linearGradient id="paint4_linear_43_1213" x1="43.6085" y1="229.572" x2="312.035" y2="316.789" gradientUnits="userSpaceOnUse">
<stop offset="0.225962" stop-color="#6C9CE4"/>
<stop offset="0.572115" stop-color="#829FD6"/>
<stop offset="0.725962" stop-color="#8AA4D9" stop-opacity="0.9"/>
<stop offset="1" stop-color="#D8E1F4"/>
</linearGradient>
</defs>
</svg>
