<svg width="379" height="379" viewBox="0 0 379 379" fill="none" xmlns="http://www.w3.org/2000/svg">
<path d="M189.507 1.13281L189.521 2.62207C189.968 34.1278 200.673 80.1333 229.051 118.487C257.862 157.427 304.903 188.502 378.007 188.502L378.014 189.502C346.571 189.942 309.271 195.884 274.929 222.284C240.585 248.685 209.132 295.599 189.493 378.118L189.007 378.061L188.521 378.118C168.882 295.599 137.428 248.685 103.085 222.284C68.7425 195.884 31.4426 189.942 0 189.502L0.00683594 188.502C73.1111 188.502 120.152 157.427 148.963 118.487C177.341 80.1333 188.046 34.1278 188.493 2.62207L188.507 1.13281V0L189.007 0.000976562L189.507 0V1.13281Z" fill="#6C9AE4"/>
</svg>
