<svg width="15" height="15" viewBox="0 0 15 15" fill="none" xmlns="http://www.w3.org/2000/svg">
<path d="M12.4533 6.81969C12.4554 7.60239 12.2725 8.37451 11.9196 9.07315C11.5012 9.91033 10.858 10.6145 10.062 11.1068C9.26595 11.599 8.34861 11.86 7.41269 11.8603C6.62999 11.8624 5.85787 11.6795 5.15923 11.3266L1.77905 12.4533L2.90578 9.07315C2.5529 8.37451 2.37003 7.60239 2.37207 6.81969C2.37243 5.88377 2.63336 4.96643 3.12562 4.17043C3.61789 3.37443 4.32205 2.73119 5.15923 2.31278C5.85787 1.9599 6.62999 1.77703 7.41269 1.77907H7.7092C8.94524 1.84726 10.1127 2.36898 10.9881 3.24432C11.8634 4.11967 12.3851 5.28714 12.4533 6.52318V6.81969Z" stroke="#2F5284" stroke-linecap="round" stroke-linejoin="round"/>
</svg>
