<svg width="15" height="15" viewBox="0 0 15 15" fill="none" xmlns="http://www.w3.org/2000/svg">
<g clip-path="url(#clip0_218_391)">
<path d="M13.0463 11.2673C13.0463 11.5818 12.9214 11.8835 12.6989 12.1059C12.4765 12.3284 12.1748 12.4533 11.8603 12.4533H2.37206C2.05751 12.4533 1.75584 12.3284 1.53341 12.1059C1.31099 11.8835 1.18604 11.5818 1.18604 11.2673V2.96508C1.18604 2.65053 1.31099 2.34886 1.53341 2.12643C1.75584 1.90401 2.05751 1.77905 2.37206 1.77905H5.33714L6.52316 3.5581H11.8603C12.1748 3.5581 12.4765 3.68305 12.6989 3.90548C12.9214 4.1279 13.0463 4.42957 13.0463 4.74412V11.2673Z" stroke="#2F5284" stroke-linecap="round" stroke-linejoin="round"/>
</g>
<defs>
<clipPath id="clip0_218_391">
<rect width="14.2323" height="14.2323" fill="white"/>
</clipPath>
</defs>
</svg>
