<svg width="24" height="24" viewBox="0 0 24 24" fill="none" xmlns="http://www.w3.org/2000/svg">
<path d="M9.10256 18.4318C4.74359 19.7159 4.74359 16.2917 3 15.8637M15.2051 21V17.6871C15.2378 17.2789 15.1817 16.8685 15.0404 16.4833C14.8991 16.0981 14.6759 15.7468 14.3856 15.4528C17.1231 15.1532 20 14.1345 20 9.46044C19.9998 8.26524 19.5316 7.11588 18.6923 6.25025C19.0897 5.20459 19.0616 4.04878 18.6138 3.02294C18.6138 3.02294 17.5851 2.72332 15.2051 4.28989C13.207 3.75813 11.1007 3.75813 9.10256 4.28989C6.72256 2.72332 5.69385 3.02294 5.69385 3.02294C5.24607 4.04878 5.21797 5.20459 5.61538 6.25025C4.76985 7.12231 4.30117 8.28205 4.30769 9.48612C4.30769 14.1259 7.18461 15.1446 9.92205 15.4785C9.63523 15.7695 9.41402 16.1166 9.27283 16.4971C9.13164 16.8776 9.07363 17.2831 9.10256 17.6871V21" stroke="#6C9AE4" stroke-width="2" stroke-linecap="round" stroke-linejoin="round"/>
</svg>
