<svg width="19" height="19" viewBox="0 0 19 19" fill="none" xmlns="http://www.w3.org/2000/svg">
<g clip-path="url(#clip0_1_2154)">
<path d="M9.3623 0C11.9859 0 14.2197 0.915975 16.062 2.74705C16.9436 3.62902 17.614 4.63703 18.0718 5.77021C18.5294 6.90367 18.7589 8.1066 18.7589 9.37959C18.7589 10.6637 18.5323 11.8669 18.0806 12.9887C17.6284 14.1107 16.9609 15.102 16.0793 15.9617C15.1639 16.866 14.1254 17.5586 12.9638 18.0387C11.8027 18.5188 10.6022 18.7589 9.36288 18.7589C8.1236 18.7589 6.93709 18.5221 5.80362 18.0469C4.67045 17.5727 3.65423 16.8859 2.75525 15.9872C1.85628 15.0885 1.17245 14.075 0.703469 12.9471C0.23449 11.8192 0 10.6303 0 9.37959C0 8.14002 0.237128 6.94822 0.711676 5.80362C1.18622 4.65902 1.87592 3.63459 2.78017 2.73005C4.56669 0.910406 6.76063 0 9.3623 0ZM9.3963 1.69184C7.25247 1.69184 5.44896 2.44016 3.98603 3.9362C3.24886 4.68452 2.68227 5.52458 2.28598 6.45697C1.88911 7.38936 1.69126 8.36366 1.69126 9.37988C1.69126 10.385 1.88911 11.3537 2.28598 12.2855C2.68256 13.2185 3.24886 14.0503 3.98603 14.7816C4.72292 15.5133 5.55448 16.071 6.48188 16.4568C7.40841 16.8419 8.38008 17.0345 9.3963 17.0345C10.4011 17.0345 11.3748 16.8396 12.3195 16.4486C13.263 16.0573 14.1136 15.4939 14.8734 14.757C16.336 13.3278 17.067 11.5357 17.067 9.38017C17.067 8.34168 16.8771 7.35917 16.4975 6.43235C16.1185 5.50553 15.5654 4.67954 14.8403 3.9532C13.3319 2.44573 11.5178 1.69184 9.3963 1.69184ZM9.27876 7.82228L8.02219 8.47563C7.88794 8.19688 7.72351 8.00108 7.52829 7.88941C7.33279 7.77802 7.15135 7.72204 6.98369 7.72204C6.14656 7.72204 5.72741 8.27456 5.72741 9.38017C5.72741 9.88257 5.83352 10.2841 6.04544 10.5857C6.25765 10.8874 6.5704 11.0383 6.98369 11.0383C7.53093 11.0383 7.91608 10.7701 8.13972 10.2343L9.29517 10.8205C9.04954 11.2787 8.70895 11.6386 8.27338 11.9009C7.83841 12.1636 7.35799 12.2946 6.83303 12.2946C5.99561 12.2946 5.31969 12.0381 4.80616 11.524C4.29263 11.0105 4.03586 10.2959 4.03586 9.38047C4.03586 8.48706 4.29556 7.77832 4.81466 7.25335C5.33376 6.72868 5.98975 6.46605 6.78291 6.46605C7.94451 6.46546 8.77607 6.91774 9.27876 7.82228ZM14.6887 7.82228L13.4492 8.47563C13.3152 8.19688 13.1502 8.00108 12.955 7.88941C12.7592 7.77802 12.5719 7.72204 12.394 7.72204C11.5565 7.72204 11.1374 8.27456 11.1374 9.38017C11.1374 9.88257 11.2438 10.2841 11.4557 10.5857C11.6676 10.8874 11.9801 11.0383 12.394 11.0383C12.9406 11.0383 13.3261 10.7701 13.5491 10.2343L14.7216 10.8205C14.4651 11.2787 14.1186 11.6386 13.6836 11.9009C13.2481 12.1636 12.7735 12.2946 12.26 12.2946C11.4111 12.2946 10.7332 12.0381 10.2255 11.524C9.71667 11.0105 9.46283 10.2959 9.46283 9.38047C9.46283 8.48706 9.72224 7.77832 10.2419 7.25335C10.7607 6.72868 11.4167 6.46605 12.2096 6.46605C13.3709 6.46546 14.1978 6.91774 14.6887 7.82228Z" fill="#6C9AE4"/>
</g>
<defs>
<clipPath id="clip0_1_2154">
<rect width="18.7589" height="18.7589" fill="white"/>
</clipPath>
</defs>
</svg>
